<svg width="45.901" height="70.101" viewBox="0 0 45.901 70.101" xmlns="http://www.w3.org/2000/svg"><g id="svgGroup" stroke-linecap="round" fill-rule="evenodd" font-size="9pt" stroke="#ffffff" stroke-width="1mm" fill="none" style="stroke:#ffffff;stroke-width:1mm;fill:none"><path d="M 0 0.001 L 21.7 0.001 A 34.292 34.292 0 0 1 27.827 0.515 Q 31.201 1.128 33.902 2.473 A 17.829 17.829 0 0 1 36.9 4.351 A 13.81 13.81 0 0 1 42.428 14.385 A 17.815 17.815 0 0 1 42.5 16.001 Q 42.5 27.701 32.9 32.301 Q 45.9 36.801 45.9 48.901 Q 45.9 58.001 38.1 64.051 Q 30.3 70.101 18.5 70.101 Q 13.753 70.101 5.431 69.456 A 460.358 460.358 0 0 1 0 69.001 L 1.2 44.701 L 0 0.001 Z M 20.4 39.301 L 12.3 39.301 L 12.2 43.001 L 12.9 59.301 A 212.141 212.141 0 0 0 15.631 59.519 Q 18.574 59.735 20.627 59.785 A 47.914 47.914 0 0 0 21.8 59.801 A 17.118 17.118 0 0 0 25.025 59.515 Q 26.927 59.15 28.414 58.318 A 9.057 9.057 0 0 0 30.05 57.151 A 8.494 8.494 0 0 0 32.568 52.946 Q 32.946 51.552 32.993 49.883 A 17.038 17.038 0 0 0 33 49.401 A 13.74 13.74 0 0 0 32.707 46.467 Q 32.305 44.626 31.349 43.265 A 7.526 7.526 0 0 0 30 41.801 A 9.001 9.001 0 0 0 27.278 40.289 Q 24.738 39.368 20.962 39.305 A 33.637 33.637 0 0 0 20.4 39.301 Z M 18.1 10.101 L 13.2 10.101 L 12.6 29.601 L 19.1 29.601 A 15.109 15.109 0 0 0 22.172 29.308 Q 24.013 28.926 25.417 28.043 A 8.138 8.138 0 0 0 26.9 26.851 A 8.911 8.911 0 0 0 29.083 23.013 Q 29.6 21.232 29.6 19.001 Q 29.6 11.114 20.57 10.216 A 25.003 25.003 0 0 0 18.1 10.101 Z"/></g></svg>