<svg width="51.802" height="71.203" viewBox="0 0 51.802 71.203" xmlns="http://www.w3.org/2000/svg"><g id="svgGroup" stroke-linecap="round" fill-rule="evenodd" font-size="9pt" stroke="#ffffff" stroke-width="1mm" fill="none" style="stroke:#ffffff;stroke-width:1mm;fill:none"><path d="M 47.602 3.202 L 49.402 4.302 L 42.602 18.202 A 16.382 16.382 0 0 0 40.61 16.737 Q 39.55 16.067 38.257 15.428 A 36.978 36.978 0 0 0 36.102 14.452 A 26.392 26.392 0 0 0 32.943 13.352 Q 31.258 12.89 29.724 12.756 A 14.096 14.096 0 0 0 28.502 12.702 A 13.408 13.408 0 0 0 22.463 14.039 Q 19.861 15.329 17.859 17.864 A 17.293 17.293 0 0 0 17.452 18.402 A 19.209 19.209 0 0 0 14.689 24.074 Q 13.876 26.698 13.54 29.879 A 45.429 45.429 0 0 0 13.302 34.652 A 42.453 42.453 0 0 0 13.903 42.012 Q 14.627 46.119 16.221 49.457 A 23.428 23.428 0 0 0 17.602 51.952 Q 21.902 58.702 29.302 58.702 Q 34.102 58.702 38.002 55.702 A 15.813 15.813 0 0 0 43.32 48.243 A 19.324 19.324 0 0 0 43.502 47.702 L 51.802 52.502 A 32.187 32.187 0 0 1 47.468 60.553 A 27.095 27.095 0 0 1 41.702 66.252 Q 34.902 71.202 26.302 71.202 A 22.828 22.828 0 0 1 9.119 63.629 A 31.633 31.633 0 0 1 7.602 61.902 A 33.491 33.491 0 0 1 0.28 44.116 A 44.033 44.033 0 0 1 0.002 39.102 Q 0.002 22.602 9.152 11.302 A 32.824 32.824 0 0 1 16.933 4.198 A 26.66 26.66 0 0 1 31.602 0.002 A 45.248 45.248 0 0 1 37.735 0.402 A 37.356 37.356 0 0 1 41.252 1.052 Q 44.766 1.881 46.69 2.742 A 9.863 9.863 0 0 1 47.602 3.202 Z"/></g></svg>