<svg width="55.401" height="70.101" viewBox="0 0 55.401 70.101" xmlns="http://www.w3.org/2000/svg"><g id="svgGroup" stroke-linecap="round" fill-rule="evenodd" font-size="9pt" stroke="#ffffff" stroke-width="1mm" fill="none" style="stroke:#ffffff;stroke-width:1mm;fill:none"><path d="M 0 69.001 L 1.2 44.701 L 0 0.001 L 26.7 0.001 A 36.192 36.192 0 0 1 35.463 1.002 A 24.698 24.698 0 0 1 47.8 8.101 A 26.737 26.737 0 0 1 54.047 19.573 Q 55.4 24.526 55.4 30.601 Q 55.4 45.943 48.721 55.92 A 33.458 33.458 0 0 1 46 59.451 Q 36.6 70.101 20.5 70.101 Q 15.064 70.101 5.935 69.456 A 523.97 523.97 0 0 1 0 69.001 Z M 13.8 10.901 L 12.8 43.001 L 13.5 59.201 Q 20.746 59.719 23.9 59.79 A 40.349 40.349 0 0 0 24.8 59.801 Q 32.7 59.801 37.25 53.401 A 21.364 21.364 0 0 0 40.153 47.381 Q 41.8 42.14 41.8 34.801 A 53.571 53.571 0 0 0 41.448 28.437 Q 40.548 20.942 37.35 16.701 A 14.007 14.007 0 0 0 29.94 11.702 Q 27.54 10.984 24.621 10.838 A 30.515 30.515 0 0 0 23.1 10.801 Q 17.022 10.801 14.252 10.886 A 70.517 70.517 0 0 0 13.8 10.901 Z"/></g></svg>