<svg width="54.402" height="71.204" viewBox="0 0 54.402 71.204" xmlns="http://www.w3.org/2000/svg"><g id="svgGroup" stroke-linecap="round" fill-rule="evenodd" font-size="9pt" stroke="#ffffff" stroke-width="1mm" fill="none" style="stroke:#ffffff;stroke-width:1mm;fill:none"><path d="M 52.402 3.202 L 54.402 4.302 L 48.602 18.202 Q 46.422 16.749 43.134 15.428 A 54.617 54.617 0 0 0 40.502 14.452 Q 36.597 13.112 33.396 12.798 A 19.411 19.411 0 0 0 31.502 12.702 A 18.613 18.613 0 0 0 25.343 13.679 A 15.739 15.739 0 0 0 18.502 18.402 A 19.56 19.56 0 0 0 14.35 26.723 Q 13.602 29.83 13.602 33.502 Q 13.602 41.836 15.605 47.759 A 24.234 24.234 0 0 0 18.252 53.302 A 16.455 16.455 0 0 0 22.442 57.766 Q 26.144 60.402 31.202 60.402 Q 36.602 60.402 41.402 58.902 L 41.402 43.402 L 28.502 43.402 L 29.502 33.302 L 53.502 33.302 L 52.602 49.602 L 53.302 66.902 A 144.658 144.658 0 0 1 44.622 69.17 Q 35.778 71.169 29.313 71.202 A 42.368 42.368 0 0 1 29.102 71.202 A 31.635 31.635 0 0 1 19.3 69.75 A 25.807 25.807 0 0 1 8.002 62.402 Q 0.002 53.602 0.002 39.102 Q 0.002 22.602 10.002 11.302 A 33.963 33.963 0 0 1 20.388 3.191 A 31.658 31.658 0 0 1 34.602 0.002 A 56.36 56.36 0 0 1 41.19 0.372 A 45.941 45.941 0 0 1 45.352 1.052 Q 49.198 1.868 51.324 2.714 A 11.513 11.513 0 0 1 52.402 3.202 Z"/></g></svg>