<svg width="60.103" height="71.104" viewBox="0 0 60.103 71.104" xmlns="http://www.w3.org/2000/svg"><g id="svgGroup" stroke-linecap="round" fill-rule="evenodd" font-size="9pt" stroke="#ffffff" stroke-width="1mm" fill="none" style="stroke:#ffffff;stroke-width:1mm;fill:none"><path d="M 44.368 2.542 A 25.13 25.13 0 0 0 33.002 0.002 A 30.987 30.987 0 0 0 20.435 2.501 A 30.637 30.637 0 0 0 9.302 11.002 A 37.915 37.915 0 0 0 1.536 26.18 A 50.948 50.948 0 0 0 0.002 39.002 A 43.513 43.513 0 0 0 0.276 43.95 A 32.906 32.906 0 0 0 7.802 61.852 A 31.724 31.724 0 0 0 9.17 63.374 A 23.951 23.951 0 0 0 27.102 71.102 A 38.649 38.649 0 0 0 29.603 71.023 A 29.351 29.351 0 0 0 51.002 60.302 A 35.093 35.093 0 0 0 51.701 59.446 Q 60.102 48.813 60.102 31.902 A 43.775 43.775 0 0 0 59.48 24.374 A 31.638 31.638 0 0 0 52.452 9.002 A 25.573 25.573 0 0 0 44.368 2.542 Z M 46.502 37.502 A 57.737 57.737 0 0 0 45.918 28.904 Q 44.242 17.838 37.756 14.104 A 15.481 15.481 0 0 0 29.902 12.202 A 16.376 16.376 0 0 0 24.361 13.099 A 13.878 13.878 0 0 0 17.952 17.852 A 18.024 18.024 0 0 0 15.217 23.121 Q 14.359 25.657 13.957 28.78 A 46.868 46.868 0 0 0 13.602 34.752 Q 13.602 44.19 16.874 50.812 A 25.159 25.159 0 0 0 18.252 53.252 A 18.175 18.175 0 0 0 21.626 57.23 A 13.21 13.21 0 0 0 30.552 60.502 A 15.128 15.128 0 0 0 35.994 59.564 Q 39.643 58.169 42.112 54.699 A 17.053 17.053 0 0 0 42.352 54.352 A 21.869 21.869 0 0 0 45.189 48.1 Q 46.009 45.238 46.317 41.814 A 48.212 48.212 0 0 0 46.502 37.502 Z"/></g></svg>