<svg width="42.701" height="69.001" viewBox="0 0 42.701 69.001" xmlns="http://www.w3.org/2000/svg"><g id="svgGroup" stroke-linecap="round" fill-rule="evenodd" font-size="9pt" stroke="#ffffff" stroke-width="1mm" fill="none" style="stroke:#ffffff;stroke-width:1mm;fill:none"><path d="M 0 0.001 L 21.7 0.001 A 27.383 27.383 0 0 1 28.224 0.736 A 18.971 18.971 0 0 1 37 5.451 Q 42.7 10.901 42.7 20.401 A 21.343 21.343 0 0 1 36.159 36.012 A 27.45 27.45 0 0 1 35.5 36.651 A 24.719 24.719 0 0 1 18.224 43.399 A 31.817 31.817 0 0 1 17.9 43.401 L 12.2 43.401 L 13.4 69.001 L 0 69.001 L 1.2 44.701 L 0 0.001 Z M 18.1 10.101 L 13.2 10.101 L 12.5 33.701 L 19.3 33.701 A 12.116 12.116 0 0 0 22.587 33.279 A 8.76 8.76 0 0 0 27.05 30.401 A 10.825 10.825 0 0 0 29.024 26.692 Q 29.8 24.242 29.8 21.001 Q 29.8 10.101 18.1 10.101 Z"/></g></svg>