<svg width="63.302" height="82.902" viewBox="0 0 63.302 82.902" xmlns="http://www.w3.org/2000/svg"><g id="svgGroup" stroke-linecap="round" fill-rule="evenodd" font-size="9pt" stroke="#ffffff" stroke-width="1mm" fill="none" style="stroke:#ffffff;stroke-width:1mm;fill:none"><path d="M 50.102 59.902 L 63.302 75.602 L 53.402 82.902 L 41.902 66.902 Q 34.902 71.102 27.102 71.102 A 23.951 23.951 0 0 1 9.17 63.374 A 31.724 31.724 0 0 1 7.802 61.852 A 32.906 32.906 0 0 1 0.276 43.95 A 43.513 43.513 0 0 1 0.002 39.002 A 50.948 50.948 0 0 1 1.536 26.18 A 37.915 37.915 0 0 1 9.302 11.002 A 30.637 30.637 0 0 1 20.435 2.501 A 30.987 30.987 0 0 1 33.002 0.002 A 25.13 25.13 0 0 1 44.368 2.542 A 25.573 25.573 0 0 1 52.452 9.002 A 31.638 31.638 0 0 1 59.48 24.374 A 43.775 43.775 0 0 1 60.102 31.902 Q 60.102 48.102 50.102 59.902 Z M 36.602 59.302 L 24.702 42.602 L 31.602 37.802 L 43.602 52.102 Q 46.395 46.226 46.498 38.122 A 49.062 49.062 0 0 0 46.502 37.502 A 57.737 57.737 0 0 0 45.918 28.904 Q 44.242 17.838 37.756 14.104 A 15.481 15.481 0 0 0 29.902 12.202 A 16.376 16.376 0 0 0 24.361 13.099 A 13.878 13.878 0 0 0 17.952 17.852 A 18.024 18.024 0 0 0 15.217 23.121 Q 14.359 25.657 13.957 28.78 A 46.868 46.868 0 0 0 13.602 34.752 Q 13.602 44.19 16.874 50.812 A 25.159 25.159 0 0 0 18.252 53.252 A 17.186 17.186 0 0 0 22.039 57.527 A 14.038 14.038 0 0 0 31.002 60.502 Q 34.002 60.502 36.602 59.302 Z"/></g></svg>