<svg width="47.7" height="70.101" viewBox="0 0 47.7 70.101" xmlns="http://www.w3.org/2000/svg"><g id="svgGroup" stroke-linecap="round" fill-rule="evenodd" font-size="9pt" stroke="#ffffff" stroke-width="1mm" fill="none" style="stroke:#ffffff;stroke-width:1mm;fill:none"><path d="M 17.9 42.401 L 12.2 42.401 L 12.2 43.001 L 13.4 69.001 L 0 69.001 L 1.2 44.701 L 0 0.001 L 21.7 0.001 A 28.763 28.763 0 0 1 28.096 0.672 Q 33.348 1.87 37 5.201 A 17.219 17.219 0 0 1 42.587 16.648 A 23.938 23.938 0 0 1 42.7 19.001 Q 42.7 25.501 39.35 30.851 Q 36 36.201 30.3 39.301 L 47.7 63.901 L 35.6 70.101 L 20 42.301 A 7.373 7.373 0 0 1 19.551 42.349 Q 19.057 42.389 18.352 42.398 A 34.436 34.436 0 0 1 17.9 42.401 Z M 18.1 10.101 L 13.2 10.101 L 12.5 32.701 L 19.3 32.701 A 12.116 12.116 0 0 0 22.587 32.279 A 8.76 8.76 0 0 0 27.05 29.401 A 10.825 10.825 0 0 0 29.024 25.692 Q 29.8 23.241 29.8 20.001 A 11.892 11.892 0 0 0 29.114 15.786 Q 27.139 10.557 19.481 10.137 A 25.231 25.231 0 0 0 18.1 10.101 Z"/></g></svg>