<svg width="46.5" height="71.105" viewBox="0 0 46.5 71.105" xmlns="http://www.w3.org/2000/svg"><g id="svgGroup" stroke-linecap="round" fill-rule="evenodd" font-size="9pt" stroke="#ffffff" stroke-width="1mm" fill="none" style="stroke:#ffffff;stroke-width:1mm;fill:none"><path d="M 0 60.904 L 7.8 50.104 A 38.32 38.32 0 0 0 12.98 54.495 Q 18.89 58.604 24.8 58.604 A 15.34 15.34 0 0 0 27.722 58.342 Q 30.147 57.872 31.85 56.554 A 7.024 7.024 0 0 0 33.638 54.571 A 6.411 6.411 0 0 0 34.5 51.254 Q 34.5 48.004 31.3 45.754 Q 28.2 43.575 23.833 41.911 A 47.276 47.276 0 0 0 23.55 41.804 Q 19 40.104 14.5 37.954 Q 10 35.804 6.8 31.804 A 14.543 14.543 0 0 1 3.695 24.013 A 18.863 18.863 0 0 1 3.6 22.104 A 19.466 19.466 0 0 1 9.342 8.23 A 27.173 27.173 0 0 1 11.1 6.554 Q 18.6 0.004 28.9 0.004 Q 33.6 0.004 38 1.004 Q 42.4 2.004 46.5 3.904 L 39.7 18.504 Q 37.567 16.828 34.243 15.355 A 44.963 44.963 0 0 0 32.05 14.454 A 34.194 34.194 0 0 0 28.65 13.345 Q 26.95 12.894 25.428 12.717 A 16.325 16.325 0 0 0 23.55 12.604 A 12.413 12.413 0 0 0 21.058 12.84 Q 19.508 13.158 18.3 13.903 A 7.305 7.305 0 0 0 17.65 14.354 Q 15.4 16.104 15.4 19.004 Q 15.4 21.615 17.994 23.7 A 11.845 11.845 0 0 0 18.6 24.154 Q 21.7 26.334 26.067 27.998 A 47.276 47.276 0 0 0 26.35 28.104 Q 30.9 29.804 35.45 31.854 Q 40 33.904 43.2 37.904 A 14.543 14.543 0 0 1 46.305 45.695 A 18.863 18.863 0 0 1 46.4 47.604 A 21.429 21.429 0 0 1 40.451 62.484 A 29.145 29.145 0 0 1 38.9 64.054 Q 31.4 71.104 21.4 71.104 A 26.587 26.587 0 0 1 13.5 69.965 A 23.207 23.207 0 0 1 8.1 67.504 Q 3.68 64.818 1.513 62.657 A 13.212 13.212 0 0 1 0.9 62.004 L 0 60.904 Z"/></g></svg>