<svg width="51.7" height="70.601" viewBox="0 0 51.7 70.601" xmlns="http://www.w3.org/2000/svg"><g id="svgGroup" stroke-linecap="round" fill-rule="evenodd" font-size="9pt" stroke="#ffffff" stroke-width="1mm" fill="none" style="stroke:#ffffff;stroke-width:1mm;fill:none"><path d="M 1 51.5 L 0 2.5 L 14.4 0 L 12.8 43.8 Q 12.8 50.8 16.05 54.7 A 10.194 10.194 0 0 0 20.994 57.906 Q 23.231 58.6 26.1 58.6 A 19.136 19.136 0 0 0 29.714 58.282 Q 31.725 57.895 33.263 57.035 A 8.778 8.778 0 0 0 35.9 54.8 A 10.849 10.849 0 0 0 37.53 51.758 Q 38.62 48.755 38.843 44.161 A 50.915 50.915 0 0 0 38.9 41.7 L 37.7 2.5 L 51.7 0 L 50.6 44 A 28.71 28.71 0 0 1 49.194 53.173 A 24.037 24.037 0 0 1 42.7 63.2 Q 34.8 70.6 22.3 70.6 A 24.358 24.358 0 0 1 14.489 69.392 A 20.915 20.915 0 0 1 7.15 65.1 A 18.392 18.392 0 0 1 2.49 58.844 A 17.899 17.899 0 0 1 1 51.5 Z"/></g></svg>